REM DIRINDEX 1\2,1\3,1\4,1\6,1\5\7,1\5\8
REM DIRNAME cjc114,folder01,folder02,folder03,folder04,folder05,folder06,folder07
TITLE ""
FILE "DB4500_5th_1A_24.mp3" MP3
  TRACK 01 AUDIO
    TITLE "0:"
    INDEX 01 00:00:00
  TRACK 02 AUDIO
    TITLE "2:cjc114_0719"
    INDEX 01 00:00:03
  TRACK 03 AUDIO
    TITLE "0:"
    INDEX 01 00:01:17
  TRACK 04 AUDIO
    TITLE "3:cjc114_0720"
    INDEX 01 00:01:44
  TRACK 05 AUDIO
    TITLE "0:"
    INDEX 01 00:02:69
  TRACK 06 AUDIO
    TITLE "4:cjc114_0721"
    INDEX 01 00:03:21
  TRACK 07 AUDIO
    TITLE "0:"
    INDEX 01 00:06:45
  TRACK 08 AUDIO
    TITLE "2:cjc114_0722"
    INDEX 01 00:07:21
  TRACK 09 AUDIO
    TITLE "0:"
    INDEX 01 00:08:26
  TRACK 10 AUDIO
    TITLE "3:cjc114_0723"
    INDEX 01 00:08:54
  TRACK 11 AUDIO
    TITLE "0:"
    INDEX 01 00:10:02
  TRACK 12 AUDIO
    TITLE "4:cjc114_0724"
    INDEX 01 00:10:29
  TRACK 13 AUDIO
    TITLE "0:"
    INDEX 01 00:13:41
  TRACK 14 AUDIO
    TITLE "2:cjc114_0725"
    INDEX 01 00:14:17
  TRACK 15 AUDIO
    TITLE "0:"
    INDEX 01 00:15:32
  TRACK 16 AUDIO
    TITLE "3:cjc114_0726"
    INDEX 01 00:15:62
  TRACK 17 AUDIO
    TITLE "0:"
    INDEX 01 00:17:02
  TRACK 18 AUDIO
    TITLE "4:cjc114_0727"
    INDEX 01 00:17:29
  TRACK 19 AUDIO
    TITLE "0:"
    INDEX 01 00:19:73
  TRACK 20 AUDIO
    TITLE "2:cjc114_0728"
    INDEX 01 00:20:55
  TRACK 21 AUDIO
    TITLE "0:"
    INDEX 01 00:21:72
  TRACK 22 AUDIO
    TITLE "3:cjc114_0729"
    INDEX 01 00:22:19
  TRACK 23 AUDIO
    TITLE "0:"
    INDEX 01 00:23:28
  TRACK 24 AUDIO
    TITLE "4:cjc114_0730"
    INDEX 01 00:23:53
  TRACK 25 AUDIO
    TITLE "0:"
    INDEX 01 00:26:66
  TRACK 26 AUDIO
    TITLE "2:cjc114_0731"
    INDEX 01 00:27:38
  TRACK 27 AUDIO
    TITLE "0:"
    INDEX 01 00:28:39
  TRACK 28 AUDIO
    TITLE "3:cjc114_0732"
    INDEX 01 00:28:60
  TRACK 29 AUDIO
    TITLE "0:"
    INDEX 01 00:30:34
  TRACK 30 AUDIO
    TITLE "4:cjc114_0733"
    INDEX 01 00:30:55
  TRACK 31 AUDIO
    TITLE "0:"
    INDEX 01 00:33:40
  TRACK 32 AUDIO
    TITLE "2:cjc114_0734"
    INDEX 01 00:34:08
  TRACK 33 AUDIO
    TITLE "0:"
    INDEX 01 00:35:08
  TRACK 34 AUDIO
    TITLE "3:cjc114_0735"
    INDEX 01 00:35:35
  TRACK 35 AUDIO
    TITLE "0:"
    INDEX 01 00:36:74
  TRACK 36 AUDIO
    TITLE "4:cjc114_0736"
    INDEX 01 00:37:22
  TRACK 37 AUDIO
    TITLE "0:"
    INDEX 01 00:41:65
  TRACK 38 AUDIO
    TITLE "2:cjc114_0737"
    INDEX 01 00:42:35
  TRACK 39 AUDIO
    TITLE "0:"
    INDEX 01 00:43:40
  TRACK 40 AUDIO
    TITLE "3:cjc114_0738"
    INDEX 01 00:43:66
  TRACK 41 AUDIO
    TITLE "0:"
    INDEX 01 00:46:21
  TRACK 42 AUDIO
    TITLE "4:cjc114_0739"
    INDEX 01 00:46:43
  TRACK 43 AUDIO
    TITLE "0:"
    INDEX 01 00:51:50
  TRACK 44 AUDIO
    TITLE "2:cjc114_0740"
    INDEX 01 00:52:32
  TRACK 45 AUDIO
    TITLE "0:"
    INDEX 01 00:53:35
  TRACK 46 AUDIO
    TITLE "3:cjc114_0741"
    INDEX 01 00:53:57
  TRACK 47 AUDIO
    TITLE "0:"
    INDEX 01 00:54:72
  TRACK 48 AUDIO
    TITLE "4:cjc114_0742"
    INDEX 01 00:55:20
  TRACK 49 AUDIO
    TITLE "0:"
    INDEX 01 00:58:69
  TRACK 50 AUDIO
    TITLE "2:cjc114_0743"
    INDEX 01 00:59:41
  TRACK 51 AUDIO
    TITLE "0:"
    INDEX 01 01:00:41
  TRACK 52 AUDIO
    TITLE "3:cjc114_0744"
    INDEX 01 01:00:62
  TRACK 53 AUDIO
    TITLE "0:"
    INDEX 01 01:02:28
  TRACK 54 AUDIO
    TITLE "4:cjc114_0745"
    INDEX 01 01:02:54
  TRACK 55 AUDIO
    TITLE "0:"
    INDEX 01 01:06:08
  TRACK 56 AUDIO
    TITLE "2:cjc114_0746"
    INDEX 01 01:06:51
  TRACK 57 AUDIO
    TITLE "0:"
    INDEX 01 01:07:66
  TRACK 58 AUDIO
    TITLE "3:cjc114_0747"
    INDEX 01 01:08:13
  TRACK 59 AUDIO
    TITLE "0:"
    INDEX 01 01:09:46
  TRACK 60 AUDIO
    TITLE "4:cjc114_0748"
    INDEX 01 01:09:71
  TRACK 61 AUDIO
    TITLE "0:"
    INDEX 01 01:13:30
  TRACK 62 AUDIO
    TITLE "2:cjc114_0749"
    INDEX 01 01:14:00
  TRACK 63 AUDIO
    TITLE "0:"
    INDEX 01 01:14:70
  TRACK 64 AUDIO
    TITLE "3:cjc114_0750"
    INDEX 01 01:15:21
  TRACK 65 AUDIO
    TITLE "0:"
    INDEX 01 01:16:60
  TRACK 66 AUDIO
    TITLE "4:cjc114_0751"
    INDEX 01 01:17:08
  TRACK 67 AUDIO
    TITLE "0:"
    INDEX 01 01:19:50
  TRACK 68 AUDIO
    TITLE "2:cjc114_0752"
    INDEX 01 01:20:26
  TRACK 69 AUDIO
    TITLE "0:"
    INDEX 01 01:21:20
  TRACK 70 AUDIO
    TITLE "3:cjc114_0753"
    INDEX 01 01:21:43
  TRACK 71 AUDIO
    TITLE "0:"
    INDEX 01 01:22:68
  TRACK 72 AUDIO
    TITLE "4:cjc114_0754"
    INDEX 01 01:23:18
  TRACK 73 AUDIO
    TITLE "0:"
    INDEX 01 01:27:08
  TRACK 74 AUDIO
    TITLE "2:cjc114_0755"
    INDEX 01 01:27:55
  TRACK 75 AUDIO
    TITLE "0:"
    INDEX 01 01:28:55
  TRACK 76 AUDIO
    TITLE "3:cjc114_0756"
    INDEX 01 01:29:03
  TRACK 77 AUDIO
    TITLE "0:"
    INDEX 01 01:30:52
  TRACK 78 AUDIO
    TITLE "4:cjc114_0757"
    INDEX 01 01:31:00
  TRACK 79 AUDIO
    TITLE "0:"
    INDEX 01 01:34:42
  TRACK 80 AUDIO
    TITLE "2:cjc114_0758"
    INDEX 01 01:35:14
  TRACK 81 AUDIO
    TITLE "0:"
    INDEX 01 01:36:15
  TRACK 82 AUDIO
    TITLE "3:cjc114_0759"
    INDEX 01 01:36:39
  TRACK 83 AUDIO
    TITLE "0:"
    INDEX 01 01:37:42
  TRACK 84 AUDIO
    TITLE "4:cjc114_0760"
    INDEX 01 01:37:66
  TRACK 85 AUDIO
    TITLE "0:"
    INDEX 01 01:40:74
